<?xml version="1.0" encoding="utf-8"?>
<!-- Generator: Adobe Illustrator 16.0.0, SVG Export Plug-In . SVG Version: 6.00 Build 0)  -->
<!DOCTYPE svg PUBLIC "-//W3C//DTD SVG 1.1//EN" "http://www.w3.org/Graphics/SVG/1.1/DTD/svg11.dtd">
<svg version="1.1" id="icon" xmlns="http://www.w3.org/2000/svg" xmlns:xlink="http://www.w3.org/1999/xlink" x="0px" y="0px"
	 width="2365.796px" height="1014.102px" viewBox="65.716 -7.732 2365.796 1014.102"
	 enable-background="new 65.716 -7.732 2365.796 1014.102" xml:space="preserve">
<g>
	<path fill="#B178B2" d="M512,327.045c92.767,0,168.84,68.649,182.046,157.829v-0.001h264.155
		C944.119,250.148,750.037,63.998,512,63.998c-238.035,0-432.119,186.15-446.202,420.876h264.16
		C343.162,395.694,419.235,327.045,512,327.045z"/>
	<path fill="#9E1F63" d="M694.21,537.482C681.701,627.453,605.329,696.956,512,696.956s-169.703-69.503-182.209-159.474H65.716
		C78.987,772.98,273.41,960.002,512,960.002c238.591,0,433.016-187.023,446.284-422.52H694.21z"/>
</g>
<text transform="matrix(1 0 0 1 1033.3701 748.7422)" font-family="'Dosis-Regular'" font-size="600">fpp</text>
<text transform="matrix(1 0 0 1 1792.4238 748.7422)" fill="#9E1F63" font-family="'Dosis-Regular'" font-size="600">api</text>
<path d="M406.41,491.525c1.68,7.568,0.348,19.38-2.982,26.383l-24.708,51.967c-3.325,7.003-0.271,10.149,6.825,7.032l57.957-25.469
	c7.096-3.124,16.88-0.819,22.333,4.692c26.311,26.582,112.542,69.213,174.21-7.091c4.869-6.03,14.564-16.568,13.091-24.178
	c-19.751-101.885-138.723-104.838-188.38-54.897c-5.464,5.499-13.167,7.072-19.038,2.01l-43.386-37.434
	c-5.871-5.063-9.266-3.035-7.586,4.533L406.41,491.525z"/>
</svg>
