<?xml version="1.0" encoding="utf-8"?>
<!-- Generator: Adobe Illustrator 16.0.0, SVG Export Plug-In . SVG Version: 6.00 Build 0)  -->
<!DOCTYPE svg PUBLIC "-//W3C//DTD SVG 1.1//EN" "http://www.w3.org/Graphics/SVG/1.1/DTD/svg11.dtd">
<svg version="1.1" id="icon" xmlns="http://www.w3.org/2000/svg" xmlns:xlink="http://www.w3.org/1999/xlink" x="0px" y="0px"
	 width="2449.804px" height="1014.102px" viewBox="65.716 -7.732 2449.804 1014.102"
	 enable-background="new 65.716 -7.732 2449.804 1014.102" xml:space="preserve">
<g>
	<path fill="#B178B2" d="M512,327.045c92.767,0,168.84,68.649,182.046,157.829v-0.001h264.155
		C944.119,250.148,750.037,63.998,512,63.998c-238.035,0-432.119,186.15-446.202,420.876h264.16
		C343.162,395.694,419.235,327.045,512,327.045z"/>
	<path fill="#9E1F63" d="M694.21,537.482C681.701,627.453,605.329,696.956,512,696.956s-169.703-69.503-182.209-159.474H65.716
		C78.987,772.98,273.41,960.002,512,960.002c238.591,0,433.016-187.023,446.284-422.52H694.21z"/>
</g>
<g>
	<path d="M1071.17,733.705V400.433c0-30.075,10.594-56.043,31.8-77.906c21.197-21.853,46.2-32.784,75-32.784h15
		c4.801,0,8.794,1.866,12,5.587c3.197,3.722,4.801,8.062,4.801,13.022c0,4.969-1.604,9.206-4.801,12.722
		c-3.206,3.516-7.199,5.269-12,5.269h-10.199c-20.4,0-37.5,7.106-51.301,21.3c-13.8,14.203-20.906,31.106-21.3,50.7v66.6h85.8
		c3.994,0,7.294,1.631,9.9,4.894c2.597,3.263,3.9,6.928,3.9,10.997c0,4.894-1.304,8.962-3.9,12.225
		c-2.606,3.263-5.906,4.885-9.9,4.885h-85.8v235.837c0,4.388-2.006,7.979-6,10.772c-4.003,2.794-8.803,4.19-14.399,4.19
		c-5.203,0-9.601-1.396-13.2-4.209C1072.97,741.729,1071.17,738.12,1071.17,733.705z"/>
	<path d="M1254.165,872.943V479.342c0-3.994,1.8-7.397,5.4-10.2c3.6-2.793,8.193-4.2,13.8-4.2c5.193,0,9.6,1.425,13.2,4.256
		c3.6,2.841,5.399,6.281,5.399,10.332v27.956c7.2-12.947,17.794-23.878,31.801-32.784c13.996-8.906,30.196-13.359,48.6-13.359
		c29.597,0,54.994,11.006,76.2,33c21.196,22.003,31.8,48.403,31.8,79.2v65.4c0,30-10.706,56.503-32.1,79.5
		c-21.403,23.006-46.106,34.5-74.101,34.5c-17.606,0-33.806-4.547-48.6-13.659c-14.804-9.104-25.604-20.129-32.4-33.085v166.698
		c0,3.609-1.903,7.021-5.7,10.236c-3.806,3.197-8.503,4.811-14.1,4.811c-5.203,0-9.703-1.604-13.5-4.801
		C1256.059,879.936,1254.165,876.543,1254.165,872.943z M1293.165,657.271c0,10.743,7.5,23.269,22.5,37.594
		s32.101,21.478,51.3,21.478c19.594,0,36.9-7.949,51.9-23.868c15-15.909,22.5-33.815,22.5-53.71v-65.034
		c0-19.49-7.5-36.993-22.5-52.509c-15-15.516-32.7-23.278-53.1-23.278c-19.2,0-36.104,6.965-50.7,20.888
		c-14.606,13.931-21.9,32.23-21.9,54.899V657.271z"/>
	<path d="M1544.562,872.943V479.342c0-3.994,1.8-7.397,5.4-10.2c3.6-2.793,8.193-4.2,13.8-4.2c5.193,0,9.6,1.425,13.2,4.256
		c3.6,2.841,5.399,6.281,5.399,10.332v27.956c7.2-12.947,17.794-23.878,31.801-32.784c13.996-8.906,30.196-13.359,48.6-13.359
		c29.597,0,54.994,11.006,76.2,33c21.196,22.003,31.8,48.403,31.8,79.2v65.4c0,30-10.706,56.503-32.1,79.5
		c-21.403,23.006-46.106,34.5-74.101,34.5c-17.606,0-33.806-4.547-48.6-13.659c-14.804-9.104-25.604-20.129-32.4-33.085v166.698
		c0,3.609-1.903,7.021-5.7,10.236c-3.806,3.197-8.503,4.811-14.1,4.811c-5.203,0-9.703-1.604-13.5-4.801
		C1546.455,879.936,1544.562,876.543,1544.562,872.943z M1583.562,657.271c0,10.743,7.5,23.269,22.5,37.594
		s32.101,21.478,51.3,21.478c19.594,0,36.9-7.949,51.9-23.868c15-15.909,22.5-33.815,22.5-53.71v-65.034
		c0-19.49-7.5-36.993-22.5-52.509c-15-15.516-32.7-23.278-53.1-23.278c-19.2,0-36.104,6.965-50.7,20.888
		c-14.606,13.931-21.9,32.23-21.9,54.899V657.271z"/>
</g>
<g>
	<path fill="#9E1F63" d="M1810.424,673.742c0-31.472,11.896-53.344,35.7-65.606c23.794-12.263,58.5-18.394,104.1-18.394h30.601
		v-14.128c0-21.581-5.804-40.322-17.4-56.222c-11.606-15.9-29.4-23.851-53.4-23.851c-16.003,0-30.506,2.85-43.5,8.541
		c-13.003,5.69-19.902,8.531-20.699,8.531c-4.801,0-8.606-2.166-11.4-6.497c-2.803-4.331-4.2-9.056-4.2-14.175
		c0-7.594,8.597-14.597,25.8-21c17.194-6.394,35.598-9.6,55.2-9.6c37.594,0,65.101,10.903,82.5,32.7
		c17.4,21.807,26.101,49.5,26.101,83.101v156c0,4.406-1.801,8.1-5.4,11.1s-8.203,4.5-13.8,4.5c-5.203,0-9.507-1.5-12.9-4.5
		c-3.403-3-5.1-6.693-5.1-11.1v-26.4c-26.804,30.807-57,46.2-90.601,46.2c-24,0-43.603-6.694-58.8-20.101
		C1818.018,719.445,1810.424,699.748,1810.424,673.742z M1849.424,670.143c0,16.8,4.8,29.306,14.4,37.5
		c9.6,8.203,22.199,12.3,37.8,12.3c18.797,0,36.693-6.994,53.7-21c16.996-13.997,25.5-27.994,25.5-42v-38.4h-25.2
		c-16.003,0-29.503,0.601-40.5,1.8c-11.007,1.2-21.9,3.403-32.7,6.601c-10.8,3.206-19.003,8.399-24.6,15.6
		C1852.218,649.742,1849.424,658.948,1849.424,670.143z"/>
	<path fill="#9E1F63" d="M2093.017,872.943V479.342c0-3.994,1.8-7.397,5.4-10.2c3.6-2.793,8.193-4.2,13.8-4.2
		c5.193,0,9.6,1.425,13.2,4.256c3.6,2.841,5.399,6.281,5.399,10.332v27.956c7.2-12.947,17.794-23.878,31.801-32.784
		c13.996-8.906,30.196-13.359,48.6-13.359c29.597,0,54.994,11.006,76.2,33c21.196,22.003,31.8,48.403,31.8,79.2v65.4
		c0,30-10.706,56.503-32.1,79.5c-21.403,23.006-46.106,34.5-74.101,34.5c-17.606,0-33.806-4.547-48.6-13.659
		c-14.804-9.104-25.604-20.129-32.4-33.085v166.698c0,3.609-1.903,7.021-5.7,10.236c-3.806,3.197-8.503,4.811-14.1,4.811
		c-5.203,0-9.703-1.604-13.5-4.801C2094.91,879.936,2093.017,876.543,2093.017,872.943z M2132.017,657.271
		c0,10.743,7.5,23.269,22.5,37.594s32.101,21.478,51.3,21.478c19.594,0,36.9-7.949,51.9-23.868c15-15.909,22.5-33.815,22.5-53.71
		v-65.034c0-19.49-7.5-36.993-22.5-52.509c-15-15.516-32.7-23.278-53.1-23.278c-19.2,0-36.104,6.965-50.7,20.888
		c-14.606,13.931-21.9,32.23-21.9,54.899V657.271z"/>
	<path fill="#9E1F63" d="M2383.413,373.442c-5.203-4.997-7.8-10.894-7.8-17.7c0-6.797,2.597-12.6,7.8-17.4
		c5.194-4.8,11.597-7.2,19.2-7.2c7.2,0,13.294,2.4,18.3,7.2c4.997,4.8,7.5,10.603,7.5,17.4c0,6.806-2.503,12.703-7.5,17.7
		c-5.006,5.006-11.1,7.5-18.3,7.5C2395.01,380.942,2388.607,378.448,2383.413,373.442z M2383.413,733.143v-253.8
		c0-3.994,1.8-7.397,5.4-10.2c3.6-2.793,8.193-4.2,13.8-4.2c5.597,0,10.294,1.406,14.1,4.2c3.797,2.803,5.7,6.207,5.7,10.2v253.8
		c0,4.003-2.006,7.603-6,10.8c-4.003,3.206-8.606,4.8-13.8,4.8c-5.203,0-9.703-1.594-13.5-4.8
		C2385.307,740.745,2383.413,737.146,2383.413,733.143z"/>
</g>
<path d="M406.41,491.525c1.68,7.568,0.348,19.38-2.982,26.383l-24.708,51.967c-3.325,7.003-0.271,10.149,6.825,7.032l57.957-25.469
	c7.096-3.124,16.88-0.819,22.333,4.692c26.311,26.582,112.542,69.213,174.21-7.091c4.869-6.03,14.564-16.568,13.091-24.178
	c-19.751-101.885-138.723-104.838-188.38-54.897c-5.464,5.499-13.167,7.072-19.038,2.01l-43.386-37.434
	c-5.871-5.063-9.266-3.035-7.586,4.533L406.41,491.525z"/>
</svg>
